<svg width="14" height="17" viewBox="0 0 14 17" fill="none" xmlns="http://www.w3.org/2000/svg">
<path d="M12.9772 1.92438H12.4801V14.1365C12.4801 14.9478 11.8197 15.6082 11.0084 15.6082H5.97193H1.96692V16.0609C1.96692 16.5793 2.38766 17 2.90604 17H7.94071H12.9754C13.4938 17 13.9145 16.5793 13.9145 16.0609V2.8635C13.9145 2.34512 13.4955 1.92438 12.9772 1.92438Z" fill="#007AFF"/>
<path d="M5.97202 15.0756H11.0067C11.5251 15.0756 11.9458 14.6549 11.9458 14.1365V1.9244V0.93912C11.9458 0.42074 11.5251 0 11.0067 0H5.97202H4.29794V0.310673C4.30147 0.342628 4.30326 0.376358 4.30326 0.410088V2.45698V2.98246C4.30326 3.7121 3.71032 4.30504 2.98068 4.30504H2.4552H0.408313C0.381684 4.30504 0.353279 4.30326 0.32665 4.30149H0V14.1365C0 14.6549 0.42074 15.0756 0.939119 15.0756H1.96878H5.97202ZM6.16197 11.8837H2.87949C2.6345 11.8837 2.43567 11.6848 2.43567 11.4399C2.43567 11.1949 2.6345 10.996 2.87949 10.996H6.16375C6.40873 10.996 6.60756 11.1949 6.60756 11.4399C6.60756 11.6848 6.40696 11.8837 6.16197 11.8837ZM9.44623 9.61845H2.87949C2.6345 9.61845 2.43567 9.4196 2.43567 9.17463C2.43567 8.92963 2.6345 8.73081 2.87949 8.73081H9.44623C9.69121 8.73081 9.89004 8.92963 9.89004 9.17463C9.89004 9.4196 9.69121 9.61845 9.44623 9.61845ZM2.87949 6.3253H9.44623C9.69121 6.3253 9.89004 6.52413 9.89004 6.76912C9.89004 7.0141 9.69121 7.21294 9.44623 7.21294H2.87949C2.6345 7.21294 2.43567 7.0141 2.43567 6.76912C2.43567 6.52413 2.6345 6.3253 2.87949 6.3253Z" fill="#007AFF"/>
<path d="M0.407953 3.77247H2.98032C2.9821 3.77247 2.98565 3.77247 2.98743 3.77247C3.41704 3.76892 3.765 3.42097 3.76855 2.99135C3.76855 2.98958 3.76855 2.98603 3.76855 2.98425V0.410107C3.76855 0.172221 3.57327 0.0142212 3.3709 0.0142212C3.27326 0.0142212 3.17562 0.0497267 3.09396 0.131389L0.12746 3.09787C-0.121078 3.34641 0.054674 3.77247 0.407953 3.77247Z" fill="#007AFF"/>
</svg>
