<svg width="19" height="19" viewBox="0 0 19 19" fill="none" xmlns="http://www.w3.org/2000/svg">
<path d="M13.1538 7.89479C13.1538 6.55354 12.6533 5.40622 11.6523 4.45284C10.6513 3.49947 9.44671 3.02278 8.03846 3.02278C6.63021 3.02278 5.42558 3.49947 4.42458 4.45284C3.42358 5.40622 2.92308 6.55354 2.92308 7.89479C2.92308 9.23604 3.42358 10.3834 4.42458 11.3367C5.42558 12.2901 6.63021 12.7668 8.03846 12.7668C9.44671 12.7668 10.6513 12.2901 11.6523 11.3367C12.6533 10.3834 13.1538 9.23604 13.1538 7.89479ZM19 16.9428C19 17.3198 18.8554 17.6461 18.5661 17.9216C18.2768 18.1971 17.9343 18.3348 17.5385 18.3348C17.1274 18.3348 16.7849 18.1971 16.5108 17.9216L12.5944 14.2023C11.2318 15.1013 9.71314 15.5508 8.03846 15.5508C6.94992 15.5508 5.90895 15.3496 4.91557 14.9472C3.92218 14.5449 3.06581 14.0011 2.34645 13.316C1.6271 12.6309 1.05619 11.8152 0.633714 10.8691C0.211238 9.92298 0 8.93154 0 7.89479C0 6.85804 0.211238 5.8666 0.633714 4.92047C1.05619 3.97434 1.6271 3.15872 2.34645 2.47359C3.06581 1.78846 3.92218 1.24471 4.91557 0.842334C5.90895 0.439958 6.94992 0.23877 8.03846 0.23877C9.127 0.23877 10.168 0.439958 11.1614 0.842334C12.1547 1.24471 13.0111 1.78846 13.7305 2.47359C14.4498 3.15872 15.0207 3.97434 15.4432 4.92047C15.8657 5.8666 16.0769 6.85804 16.0769 7.89479C16.0769 9.4898 15.605 10.9362 14.6611 12.2339L18.5775 15.9641C18.8592 16.2323 19 16.5586 19 16.9428Z" fill="#007AFF"/>
</svg>
