<svg width="170" height="26" viewBox="0 0 170 26" fill="none" xmlns="http://www.w3.org/2000/svg">
<path fill-rule="evenodd" clip-rule="evenodd" d="M0 26L65.3551 26V22.6045C64.0471 22.6045 62.9869 21.5148 62.9869 20.1657C62.9869 20.1435 62.9872 20.1214 62.9878 20.0994C62.9872 20.0774 62.9869 20.0552 62.9869 20.0331C62.9869 18.6887 64.0471 17.599 65.3551 17.599V15.4815C64.0471 15.4815 62.9869 14.3919 62.9869 13.0475C62.9869 13.0245 62.9872 13.0017 62.9878 12.9789C62.9872 12.956 62.9869 12.9331 62.9869 12.9101C62.9869 11.5657 64.0471 10.476 65.3551 10.476V8.35856C64.0471 8.35856 62.9869 7.26889 62.9869 5.92449C62.9869 5.90231 62.9872 5.8802 62.9878 5.85816L62.9875 5.84678L62.9873 5.83662L62.9871 5.82268L62.987 5.81282L62.9869 5.80326L62.9869 5.79183C62.9869 4.44743 64.0471 3.35304 65.3551 3.35304V0H0V3.35303C1.30799 3.35303 2.36815 4.44742 2.36815 5.79183C2.36815 5.81401 2.36786 5.83612 2.36729 5.85816C2.36786 5.8802 2.36815 5.9023 2.36815 5.92448C2.36815 7.26888 1.30799 8.35856 0 8.35856V10.476C1.30799 10.476 2.36815 11.5657 2.36815 12.9101C2.36815 12.9331 2.36784 12.956 2.36723 12.9789C2.36784 13.0017 2.36815 13.0245 2.36815 13.0475C2.36815 14.3919 1.30799 15.4815 0 15.4815V17.599C1.30799 17.599 2.36815 18.6886 2.36815 20.0331C2.36815 20.0552 2.36786 20.0773 2.36729 20.0994C2.36786 20.1214 2.36815 20.1435 2.36815 20.1657C2.36815 21.5148 1.30799 22.6045 0 22.6045V26ZM8.37104 21.3515H12.5566V14.4707H12.6874C12.8618 14.4707 13.0623 14.5933 13.289 14.8384C13.5332 15.0835 13.7599 15.3549 13.9692 15.6525C14.1959 15.9327 14.3616 16.1603 14.4662 16.3354V16.3091L17.7361 21.3515H22.5495V21.2727L19.0703 16.3091C18.7564 15.8714 18.425 15.4337 18.0762 14.996C17.7449 14.5407 17.4135 14.1468 17.0821 13.8141C16.7682 13.464 16.4892 13.2364 16.245 13.1313V13.0525C16.4892 12.965 16.7682 12.7374 17.0821 12.3697C17.4135 11.9845 17.7449 11.5468 18.0762 11.0566C18.4076 10.5488 18.704 10.0761 18.9656 9.63838L21.9478 4.80606V4.72727H17.3961L13.8907 10.4263C13.6989 10.7064 13.4809 10.9865 13.2367 11.2667C13.01 11.5468 12.8094 11.6869 12.635 11.6869H12.5566V4.72727H8.37104V21.3515ZM40.7158 21.3515V21.2727L35.3531 4.72727H29.598L24.2353 21.299V21.3515H28.6825C28.9789 20.4586 29.3016 19.3993 29.6504 18.1737H35.3008C35.4926 18.7865 35.667 19.3643 35.824 19.9071C35.9984 20.4498 36.1466 20.9313 36.2687 21.3515H40.7158ZM31.6646 10.9778C31.996 9.69966 32.2489 8.61414 32.4233 7.72121H32.5279C32.7023 8.61414 32.9552 9.69966 33.2865 10.9778C33.6179 12.2559 33.9754 13.5603 34.3591 14.8909H30.6183C30.9845 13.5603 31.3333 12.2559 31.6646 10.9778ZM43.4989 8.11515H51.5299V8.16768L43.0804 18.6202V21.3778H57.1804V17.9899H48.757V17.9374L56.7618 7.74747V4.72727H43.4989V8.11515Z" fill="#3C3D43"/>
<path d="M78.9774 22.0632V7.67656H73.7979V3.77657H88.7611V7.67656H83.5815V22.0632H78.9774Z" fill="#3C3D43"/>
<path d="M96.8193 22.0632H92.2153V3.77657H96.8193V22.0632Z" fill="#3C3D43"/>
<path d="M115.301 18.1055V21.7455C114.38 21.938 113.479 22.0825 112.596 22.1788C111.714 22.2751 110.668 22.3232 109.46 22.3232C107.906 22.3232 106.592 22.1884 105.517 21.9188C104.462 21.6492 103.609 21.1773 102.956 20.5032C102.323 19.8099 101.863 18.8373 101.575 17.5855C101.287 16.3336 101.144 14.7255 101.144 12.761C101.144 10.8736 101.287 9.32323 101.575 8.1099C101.863 6.89657 102.323 5.96249 102.956 5.30768C103.609 4.6336 104.462 4.17138 105.517 3.92101C106.592 3.65138 107.906 3.51657 109.46 3.51657C110.668 3.51657 111.714 3.56471 112.596 3.66101C113.479 3.73805 114.38 3.88249 115.301 4.09434V7.8499L115.215 7.90768C114.409 7.71508 113.632 7.58027 112.884 7.50323C112.136 7.40694 111.215 7.35879 110.121 7.35879C109.239 7.35879 108.51 7.42619 107.935 7.56101C107.378 7.67656 106.937 7.91731 106.611 8.28323C106.285 8.64916 106.055 9.18842 105.92 9.90101C105.805 10.6136 105.748 11.5669 105.748 12.761C105.748 14.0129 105.805 15.024 105.92 15.7943C106.055 16.5455 106.285 17.1136 106.611 17.4988C106.937 17.884 107.378 18.144 107.935 18.2788C108.51 18.4136 109.239 18.481 110.121 18.481C111.196 18.481 112.107 18.4521 112.855 18.3943C113.622 18.3173 114.39 18.1825 115.157 17.9899L115.301 18.1055Z" fill="#3C3D43"/>
<path d="M123.779 22.0632H119.175V3.77657H123.779V11.4321C123.818 11.4321 123.847 11.4321 123.866 11.4321C124.058 11.4321 124.278 11.278 124.528 10.9699C124.796 10.6617 125.036 10.3536 125.247 10.0455L129.103 3.77657H134.11V3.86323L130.829 9.17879C130.542 9.66027 130.216 10.1803 129.851 10.7388C129.487 11.278 129.122 11.7595 128.758 12.1832C128.412 12.5877 128.105 12.838 127.837 12.9343V13.021C128.105 13.1366 128.412 13.3869 128.758 13.7721C129.122 14.138 129.487 14.5714 129.851 15.0721C130.235 15.5536 130.599 16.0351 130.945 16.5166L134.772 21.9766V22.0632H129.477L125.88 16.5166V16.5455C125.765 16.3529 125.583 16.1025 125.333 15.7943C125.103 15.4669 124.854 15.1684 124.585 14.8988C124.336 14.6292 124.115 14.4943 123.923 14.4943C123.885 14.4943 123.856 14.4943 123.837 14.4943C123.818 14.4943 123.799 14.4943 123.779 14.4943V22.0632Z" fill="#3C3D43"/>
<path d="M138.065 22.0632V3.77657H151.589V7.53212H142.669V10.9988H150.41V14.7543H142.669V18.3077H151.589V22.0632H138.065Z" fill="#3C3D43"/>
<path d="M160.216 22.0632V7.67656H155.037V3.77657H170V7.67656H164.82V22.0632H160.216Z" fill="#3C3D43"/>
</svg>
